<svg xmlns="http://www.w3.org/2000/svg" xmlns:xlink="http://www.w3.org/1999/xlink" width="0" height="0" style="display:none;"><symbol viewBox="0 0 24 24" id="twitter-x-line"><path d="M10.4883 14.651L15.25 21H22.25L14.3917 10.5223L20.9308 3H18.2808L13.1643 8.88578L8.75 3H1.75L9.26086 13.0145L2.31915 21H4.96917L10.4883 14.651ZM16.25 19L5.75 5H7.75L18.25 19H16.25Z"></path></symbol><symbol viewBox="0 0 24 24" id="instagram-fill"><path d="M13.0281 2.00073C14.1535 2.00259 14.7238 2.00855 15.2166 2.02322L15.4107 2.02956C15.6349 2.03753 15.8561 2.04753 16.1228 2.06003C17.1869 2.1092 17.9128 2.27753 18.5503 2.52503C19.2094 2.7792 19.7661 3.12253 20.3219 3.67837C20.8769 4.2342 21.2203 4.79253 21.4753 5.45003C21.7219 6.0867 21.8903 6.81337 21.9403 7.87753C21.9522 8.1442 21.9618 8.3654 21.9697 8.58964L21.976 8.78373C21.9906 9.27647 21.9973 9.84686 21.9994 10.9723L22.0002 11.7179C22.0003 11.809 22.0003 11.903 22.0003 12L22.0002 12.2821L21.9996 13.0278C21.9977 14.1532 21.9918 14.7236 21.9771 15.2163L21.9707 15.4104C21.9628 15.6347 21.9528 15.8559 21.9403 16.1225C21.8911 17.1867 21.7219 17.9125 21.4753 18.55C21.2211 19.2092 20.8769 19.7659 20.3219 20.3217C19.7661 20.8767 19.2069 21.22 18.5503 21.475C17.9128 21.7217 17.1869 21.89 16.1228 21.94C15.8561 21.9519 15.6349 21.9616 15.4107 21.9694L15.2166 21.9757C14.7238 21.9904 14.1535 21.997 13.0281 21.9992L12.2824 22C12.1913 22 12.0973 22 12.0003 22L11.7182 22L10.9725 21.9993C9.8471 21.9975 9.27672 21.9915 8.78397 21.9768L8.58989 21.9705C8.36564 21.9625 8.14444 21.9525 7.87778 21.94C6.81361 21.8909 6.08861 21.7217 5.45028 21.475C4.79194 21.2209 4.23444 20.8767 3.67861 20.3217C3.12278 19.7659 2.78028 19.2067 2.52528 18.55C2.27778 17.9125 2.11028 17.1867 2.06028 16.1225C2.0484 15.8559 2.03871 15.6347 2.03086 15.4104L2.02457 15.2163C2.00994 14.7236 2.00327 14.1532 2.00111 13.0278L2.00098 10.9723C2.00284 9.84686 2.00879 9.27647 2.02346 8.78373L2.02981 8.58964C2.03778 8.3654 2.04778 8.1442 2.06028 7.87753C2.10944 6.81253 2.27778 6.08753 2.52528 5.45003C2.77944 4.7917 3.12278 4.2342 3.67861 3.67837C4.23444 3.12253 4.79278 2.78003 5.45028 2.52503C6.08778 2.27753 6.81278 2.11003 7.87778 2.06003C8.14444 2.04816 8.36564 2.03847 8.58989 2.03062L8.78397 2.02433C9.27672 2.00969 9.8471 2.00302 10.9725 2.00086L13.0281 2.00073ZM12.0003 7.00003C9.23738 7.00003 7.00028 9.23956 7.00028 12C7.00028 14.7629 9.23981 17 12.0003 17C14.7632 17 17.0003 14.7605 17.0003 12C17.0003 9.23713 14.7607 7.00003 12.0003 7.00003ZM12.0003 9.00003C13.6572 9.00003 15.0003 10.3427 15.0003 12C15.0003 13.6569 13.6576 15 12.0003 15C10.3434 15 9.00028 13.6574 9.00028 12C9.00028 10.3431 10.3429 9.00003 12.0003 9.00003ZM17.2503 5.50003C16.561 5.50003 16.0003 6.05994 16.0003 6.74918C16.0003 7.43843 16.5602 7.9992 17.2503 7.9992C17.9395 7.9992 18.5003 7.4393 18.5003 6.74918C18.5003 6.05994 17.9386 5.49917 17.2503 5.50003Z"></path></symbol><symbol viewBox="0 0 24 24" id="linkedin-fill"><path d="M6.94048 4.99993C6.94011 5.81424 6.44608 6.54702 5.69134 6.85273C4.9366 7.15845 4.07187 6.97605 3.5049 6.39155C2.93793 5.80704 2.78195 4.93715 3.1105 4.19207C3.43906 3.44699 4.18654 2.9755 5.00048 2.99993C6.08155 3.03238 6.94097 3.91837 6.94048 4.99993ZM7.00048 8.47993H3.00048V20.9999H7.00048V8.47993ZM13.3205 8.47993H9.34048V20.9999H13.2805V14.4299C13.2805 10.7699 18.0505 10.4299 18.0505 14.4299V20.9999H22.0005V13.0699C22.0005 6.89993 14.9405 7.12993 13.2805 10.1599L13.3205 8.47993Z"></path></symbol><symbol viewBox="0 0 24 24" id="facebook-circle-fill"><path d="M12.001 2C6.47813 2 2.00098 6.47715 2.00098 12C2.00098 16.9913 5.65783 21.1283 10.4385 21.8785V14.8906H7.89941V12H10.4385V9.79688C10.4385 7.29063 11.9314 5.90625 14.2156 5.90625C15.3097 5.90625 16.4541 6.10156 16.4541 6.10156V8.5625H15.1931C13.9509 8.5625 13.5635 9.33334 13.5635 10.1242V12H16.3369L15.8936 14.8906H13.5635V21.8785C18.3441 21.1283 22.001 16.9913 22.001 12C22.001 6.47715 17.5238 2 12.001 2Z"></path></symbol><symbol viewBox="0 0 24 24" id="menu-line"><path d="M3 4H21V6H3V4ZM3 11H21V13H3V11ZM3 18H21V20H3V18Z"></path></symbol><symbol viewBox="0 0 24 24" id="shopping-bag-2-fill"><path d="M20.0049 22H4.00488C3.4526 22 3.00488 21.5523 3.00488 21V3C3.00488 2.44772 3.4526 2 4.00488 2H20.0049C20.5572 2 21.0049 2.44772 21.0049 3V21C21.0049 21.5523 20.5572 22 20.0049 22ZM9.00488 6H7.00488V8C7.00488 10.7614 9.24346 13 12.0049 13C14.7663 13 17.0049 10.7614 17.0049 8V6H15.0049V8C15.0049 9.65685 13.6617 11 12.0049 11C10.348 11 9.00488 9.65685 9.00488 8V6Z"></path></symbol><symbol viewBox="0 0 24 24" id="shopping-cart-2-fill"><path d="M4.00436 6.41686L0.761719 3.17422L2.17593 1.76001L5.41857 5.00265H20.6603C21.2126 5.00265 21.6603 5.45037 21.6603 6.00265C21.6603 6.09997 21.6461 6.19678 21.6182 6.29L19.2182 14.29C19.0913 14.713 18.7019 15.0027 18.2603 15.0027H6.00436V17.0027H17.0044V19.0027H5.00436C4.45207 19.0027 4.00436 18.5549 4.00436 18.0027V6.41686ZM5.50436 23.0027C4.67593 23.0027 4.00436 22.3311 4.00436 21.5027C4.00436 20.6742 4.67593 20.0027 5.50436 20.0027C6.33279 20.0027 7.00436 20.6742 7.00436 21.5027C7.00436 22.3311 6.33279 23.0027 5.50436 23.0027ZM17.5044 23.0027C16.6759 23.0027 16.0044 22.3311 16.0044 21.5027C16.0044 20.6742 16.6759 20.0027 17.5044 20.0027C18.3328 20.0027 19.0044 20.6742 19.0044 21.5027C19.0044 22.3311 18.3328 23.0027 17.5044 23.0027Z"></path></symbol><symbol viewBox="0 0 24 24" id="shopping-basket-line"><path d="M12.0049 2C15.3186 2 18.0049 4.68629 18.0049 8V9H22.0049V11H20.8379L20.0813 20.083C20.0381 20.6013 19.6048 21 19.0847 21H4.92502C4.40493 21 3.97166 20.6013 3.92847 20.083L3.17088 11H2.00488V9H6.00488V8C6.00488 4.68629 8.69117 2 12.0049 2ZM18.8309 11H5.17788L5.84488 19H18.1639L18.8309 11ZM13.0049 13V17H11.0049V13H13.0049ZM9.00488 13V17H7.00488V13H9.00488ZM17.0049 13V17H15.0049V13H17.0049ZM12.0049 4C9.86269 4 8.1138 5.68397 8.00978 7.80036L8.00488 8V9H16.0049V8C16.0049 5.8578 14.3209 4.10892 12.2045 4.0049L12.0049 4Z"></path></symbol><symbol viewBox="0 0 24 24" id="customer-service-fill"><path d="M22 17.0022C21.999 19.8731 19.9816 22.2726 17.2872 22.8616L16.6492 20.9476C17.8532 20.7511 18.8765 20.0171 19.4649 19H17C15.8954 19 15 18.1046 15 17V13C15 11.8954 15.8954 11 17 11H19.9381C19.446 7.05369 16.0796 4 12 4C7.92038 4 4.55399 7.05369 4.06189 11H7C8.10457 11 9 11.8954 9 13V17C9 18.1046 8.10457 19 7 19H4C2.89543 19 2 18.1046 2 17V12C2 6.47715 6.47715 2 12 2C17.5228 2 22 6.47715 22 12V12.9987V13V17V17.0013V17.0022Z"></path></symbol><symbol viewBox="0 0 24 24" id="phone-fill"><path d="M21 16.42V19.9561C21 20.4811 20.5941 20.9167 20.0705 20.9537C19.6331 20.9846 19.2763 21 19 21C10.1634 21 3 13.8366 3 5C3 4.72371 3.01545 4.36687 3.04635 3.9295C3.08337 3.40588 3.51894 3 4.04386 3H7.5801C7.83678 3 8.05176 3.19442 8.07753 3.4498C8.10067 3.67907 8.12218 3.86314 8.14207 4.00202C8.34435 5.41472 8.75753 6.75936 9.3487 8.00303C9.44359 8.20265 9.38171 8.44159 9.20185 8.57006L7.04355 10.1118C8.35752 13.1811 10.8189 15.6425 13.8882 16.9565L15.4271 14.8019C15.5572 14.6199 15.799 14.5573 16.001 14.6532C17.2446 15.2439 18.5891 15.6566 20.0016 15.8584C20.1396 15.8782 20.3225 15.8995 20.5502 15.9225C20.8056 15.9483 21 16.1633 21 16.42Z"></path></symbol><symbol viewBox="0 0 24 24" id="github-fill"><path d="M12.001 2C6.47598 2 2.00098 6.475 2.00098 12C2.00098 16.425 4.86348 20.1625 8.83848 21.4875C9.33848 21.575 9.52598 21.275 9.52598 21.0125C9.52598 20.775 9.51348 19.9875 9.51348 19.15C7.00098 19.6125 6.35098 18.5375 6.15098 17.975C6.03848 17.6875 5.55098 16.8 5.12598 16.5625C4.77598 16.375 4.27598 15.9125 5.11348 15.9C5.90098 15.8875 6.46348 16.625 6.65098 16.925C7.55098 18.4375 8.98848 18.0125 9.56348 17.75C9.65098 17.1 9.91348 16.6625 10.201 16.4125C7.97598 16.1625 5.65098 15.3 5.65098 11.475C5.65098 10.3875 6.03848 9.4875 6.67598 8.7875C6.57598 8.5375 6.22598 7.5125 6.77598 6.1375C6.77598 6.1375 7.61348 5.875 9.52598 7.1625C10.326 6.9375 11.176 6.825 12.026 6.825C12.876 6.825 13.726 6.9375 14.526 7.1625C16.4385 5.8625 17.276 6.1375 17.276 6.1375C17.826 7.5125 17.476 8.5375 17.376 8.7875C18.0135 9.4875 18.401 10.375 18.401 11.475C18.401 15.3125 16.0635 16.1625 13.8385 16.4125C14.201 16.725 14.5135 17.325 14.5135 18.2625C14.5135 19.6 14.501 20.675 14.501 21.0125C14.501 21.275 14.6885 21.5875 15.1885 21.4875C19.259 20.1133 21.9999 16.2963 22.001 12C22.001 6.475 17.526 2 12.001 2Z"></path></symbol><symbol viewBox="0 0 24 24" id="registered-fill"><path d="M12 2C17.5228 2 22 6.47715 22 12C22 17.5228 17.5228 22 12 22C6.47715 22 2 17.5228 2 12C2 6.47715 6.47715 2 12 2ZM12.5 7H8V17H10V14H12.217L14.397 17H16.869L14.3191 13.4907C15.327 12.8763 16 11.7668 16 10.5C16 8.63144 14.5357 7.10487 12.692 7.00518L12.5 7ZM12.5 9C13.2797 9 13.9204 9.59489 13.9931 10.3555L14 10.5L13.9931 10.6445C13.925 11.3576 13.3576 11.925 12.6445 11.9931L12.5 12H10V9H12.5Z"></path></symbol><symbol viewBox="0 0 24 24" id="tools-fill"><path d="M5.32943 3.27158C6.56252 2.8332 7.9923 3.10749 8.97927 4.09446C9.96652 5.08171 10.2407 6.51202 9.80178 7.74535L20.6465 18.5902L18.5252 20.7115L7.67936 9.86709C6.44627 10.3055 5.01649 10.0312 4.02952 9.04421C3.04227 8.05696 2.7681 6.62665 3.20701 5.39332L5.44373 7.63C6.02952 8.21578 6.97927 8.21578 7.56505 7.63C8.15084 7.04421 8.15084 6.09446 7.56505 5.50868L5.32943 3.27158ZM15.6968 5.15512L18.8788 3.38736L20.293 4.80157L18.5252 7.98355L16.7574 8.3371L14.6361 10.4584L13.2219 9.04421L15.3432 6.92289L15.6968 5.15512ZM8.62572 12.9333L10.747 15.0546L5.79729 20.0044C5.2115 20.5902 4.26175 20.5902 3.67597 20.0044C3.12464 19.453 3.09221 18.5793 3.57867 17.99L3.67597 17.883L8.62572 12.9333Z"></path></symbol><symbol viewBox="0 0 24 24" id="equalizer-fill"><path d="M6.17071 18C6.58254 16.8348 7.69378 16 9 16C10.3062 16 11.4175 16.8348 11.8293 18H22V20H11.8293C11.4175 21.1652 10.3062 22 9 22C7.69378 22 6.58254 21.1652 6.17071 20H2V18H6.17071ZM12.1707 11C12.5825 9.83481 13.6938 9 15 9C16.3062 9 17.4175 9.83481 17.8293 11H22V13H17.8293C17.4175 14.1652 16.3062 15 15 15C13.6938 15 12.5825 14.1652 12.1707 13H2V11H12.1707ZM6.17071 4C6.58254 2.83481 7.69378 2 9 2C10.3062 2 11.4175 2.83481 11.8293 4H22V6H11.8293C11.4175 7.16519 10.3062 8 9 8C7.69378 8 6.58254 7.16519 6.17071 6H2V4H6.17071Z"></path></symbol><symbol viewBox="0 0 24 24" id="settings-5-line"><path d="M2.21232 14.0601C1.91928 12.6755 1.93115 11.2743 2.21316 9.94038C3.32308 10.0711 4.29187 9.7035 4.60865 8.93871C4.92544 8.17392 4.50032 7.22896 3.62307 6.53655C4.3669 5.3939 5.34931 4.39471 6.53554 3.62289C7.228 4.50059 8.17324 4.92601 8.93822 4.60914C9.7032 4.29227 10.0708 3.32308 9.93979 2.21281C11.3243 1.91977 12.7255 1.93164 14.0595 2.21364C13.9288 3.32356 14.2964 4.29235 15.0612 4.60914C15.8259 4.92593 16.7709 4.5008 17.4633 3.62356C18.606 4.36739 19.6052 5.3498 20.377 6.53602C19.4993 7.22849 19.0739 8.17373 19.3907 8.93871C19.7076 9.70369 20.6768 10.0713 21.7871 9.94028C22.0801 11.3248 22.0682 12.726 21.7862 14.06C20.6763 13.9293 19.7075 14.2969 19.3907 15.0616C19.0739 15.8264 19.4991 16.7714 20.3763 17.4638C19.6325 18.6064 18.6501 19.6056 17.4638 20.3775C16.7714 19.4998 15.8261 19.0743 15.0612 19.3912C14.2962 19.7081 13.9286 20.6773 14.0596 21.7875C12.675 22.0806 11.2738 22.0687 9.93989 21.7867C10.0706 20.6768 9.70301 19.708 8.93822 19.3912C8.17343 19.0744 7.22848 19.4995 6.53606 20.3768C5.39341 19.633 4.39422 18.6506 3.62241 17.4643C4.5001 16.7719 4.92552 15.8266 4.60865 15.0616C4.29179 14.2967 3.32259 13.9291 2.21232 14.0601ZM3.99975 12.2104C5.09956 12.5148 6.00718 13.2117 6.45641 14.2963C6.90564 15.3808 6.75667 16.5154 6.19421 17.5083C6.29077 17.61 6.38998 17.7092 6.49173 17.8056C7.4846 17.2432 8.61912 17.0943 9.70359 17.5435C10.7881 17.9927 11.485 18.9002 11.7894 19.9999C11.9295 20.0037 12.0697 20.0038 12.2099 20.0001C12.5143 18.9003 13.2112 17.9927 14.2958 17.5435C15.3803 17.0942 16.5149 17.2432 17.5078 17.8057C17.6096 17.7091 17.7087 17.6099 17.8051 17.5081C17.2427 16.5153 17.0938 15.3807 17.543 14.2963C17.9922 13.2118 18.8997 12.5149 19.9994 12.2105C20.0032 12.0704 20.0033 11.9301 19.9996 11.7899C18.8998 11.4856 17.9922 10.7886 17.543 9.70407C17.0937 8.61953 17.2427 7.48494 17.8052 6.49204C17.7086 6.39031 17.6094 6.2912 17.5076 6.19479C16.5148 6.75717 15.3803 6.9061 14.2958 6.4569C13.2113 6.0077 12.5144 5.10016 12.21 4.00044C12.0699 3.99666 11.9297 3.99659 11.7894 4.00024C11.4851 5.10005 10.7881 6.00767 9.70359 6.4569C8.61904 6.90613 7.48446 6.75715 6.49155 6.1947C6.38982 6.29126 6.29071 6.39047 6.19431 6.49222C6.75668 7.48509 6.90561 8.61961 6.45641 9.70407C6.00721 10.7885 5.09967 11.4855 3.99995 11.7899C3.99617 11.93 3.9961 12.0702 3.99975 12.2104ZM11.9997 15.0002C10.3428 15.0002 8.99969 13.657 8.99969 12.0002C8.99969 10.3433 10.3428 9.00018 11.9997 9.00018C13.6565 9.00018 14.9997 10.3433 14.9997 12.0002C14.9997 13.657 13.6565 15.0002 11.9997 15.0002ZM11.9997 13.0002C12.552 13.0002 12.9997 12.5525 12.9997 12.0002C12.9997 11.4479 12.552 11.0002 11.9997 11.0002C11.4474 11.0002 10.9997 11.4479 10.9997 12.0002C10.9997 12.5525 11.4474 13.0002 11.9997 13.0002Z"></path></symbol><symbol viewBox="0 0 24 24" id="reset-right-line"><path d="M2 12C2 17.5228 6.47715 22 12 22C17.5228 22 22 17.5228 22 12C22 6.47715 17.5228 2 12 2V4C16.4183 4 20 7.58172 20 12C20 16.4183 16.4183 20 12 20C7.58172 20 4 16.4183 4 12C4 9.25022 5.38734 6.82447 7.50024 5.38451L7.5 8H9.5V2L3.5 2V4L5.99918 3.99989C3.57075 5.82434 2 8.72873 2 12Z"></path></symbol><symbol viewBox="0 0 24 24" id="user-settings-fill"><path d="M12 14V22H4C4 17.5817 7.58172 14 12 14ZM12 13C8.685 13 6 10.315 6 7C6 3.685 8.685 1 12 1C15.315 1 18 3.685 18 7C18 10.315 15.315 13 12 13ZM14.5946 18.8115C14.5327 18.5511 14.5 18.2794 14.5 18C14.5 17.7207 14.5327 17.449 14.5945 17.1886L13.6029 16.6161L14.6029 14.884L15.5952 15.4569C15.9883 15.0851 16.4676 14.8034 17 14.6449V13.5H19V14.6449C19.5324 14.8034 20.0116 15.0851 20.4047 15.4569L21.3971 14.8839L22.3972 16.616L21.4055 17.1885C21.4673 17.449 21.5 17.7207 21.5 18C21.5 18.2793 21.4673 18.551 21.4055 18.8114L22.3972 19.3839L21.3972 21.116L20.4048 20.543C20.0117 20.9149 19.5325 21.1966 19.0001 21.355V22.5H17.0001V21.3551C16.4677 21.1967 15.9884 20.915 15.5953 20.5431L14.603 21.1161L13.6029 19.384L14.5946 18.8115ZM18 17C17.4477 17 17 17.4477 17 18C17 18.5523 17.4477 19 18 19C18.5523 19 19 18.5523 19 18C19 17.4477 18.5523 17 18 17Z"></path></symbol><symbol viewBox="0 0 24 24" id="close-circle-fill"><path d="M12 22C6.47715 22 2 17.5228 2 12C2 6.47715 6.47715 2 12 2C17.5228 2 22 6.47715 22 12C22 17.5228 17.5228 22 12 22ZM12 10.5858L9.17157 7.75736L7.75736 9.17157L10.5858 12L7.75736 14.8284L9.17157 16.2426L12 13.4142L14.8284 16.2426L16.2426 14.8284L13.4142 12L16.2426 9.17157L14.8284 7.75736L12 10.5858Z"></path></symbol></svg>